{"accessors":[{"bufferView":0,"componentType":5126,"count":36,"max":[0.100000001490116,0.627500057220459,0.0],"min":[-0.100000001490116,-0.0274999737739563,0.0],"normalized":false,"type":"VEC3"},{"bufferView":1,"componentType":5126,"count":36,"max":[1.0,0.0,-0.0000152590218931437,1.0],"min":[1.0,0.0,-0.0000152590218931437,1.0],"normalized":false,"type":"VEC4"},{"bufferView":2,"componentType":5126,"count":36,"max":[-0.0000152592547237873,-0.0000152592547237873,1.0],"min":[-0.0000152592547237873,-0.0000152592547237873,1.0],"normalized":false,"type":"VEC3"},{"bufferView":3,"componentType":5126,"count":36,"max":[1.0,1.0],"min":[0.0,0.0],"normalized":false,"type":"VEC2"},{"bufferView":4,"componentType":5123,"count":132,"max":[35.0],"min":[0.0],"normalized":false,"type":"SCALAR"},{"bufferView":5,"componentType":5126,"count":36,"max":[0.100000001490116,0.627500057220459,0.0],"min":[-0.100000001490116,-0.0274999737739563,0.0],"normalized":false,"type":"VEC3"},{"bufferView":6,"componentType":5126,"count":36,"max":[1.0,0.0,-0.0000152590218931437,1.0],"min":[1.0,0.0,-0.0000152590218931437,1.0],"normalized":false,"type":"VEC4"},{"bufferView":7,"componentType":5126,"count":36,"max":[-0.0000152592547237873,-0.0000152592547237873,1.0],"min":[-0.0000152592547237873,-0.0000152592547237873,1.0],"normalized":false,"type":"VEC3"},{"bufferView":8,"componentType":5126,"count":36,"max":[1.0,1.0],"min":[0.0,0.0],"normalized":false,"type":"VEC2"},{"bufferView":9,"componentType":5123,"count":132,"max":[35.0],"min":[0.0],"normalized":false,"type":"SCALAR"},{"bufferView":10,"componentType":5126,"count":36,"max":[0.100000001490116,0.627500057220459,0.0],"min":[-0.100000001490116,-0.0274999737739563,0.0],"normalized":false,"type":"VEC3"},{"bufferView":11,"componentType":5126,"count":36,"max":[1.0,0.0,-0.0000152590218931437,1.0],"min":[1.0,0.0,-0.0000152590218931437,1.0],"normalized":false,"type":"VEC4"},{"bufferView":12,"componentType":5126,"count":36,"max":[-0.0000152592547237873,-0.0000152592547237873,1.0],"min":[-0.0000152592547237873,-0.0000152592547237873,1.0],"normalized":false,"type":"VEC3"},{"bufferView":13,"componentType":5126,"count":36,"max":[1.0,1.0],"min":[0.0,0.0],"normalized":false,"type":"VEC2"},{"bufferView":14,"componentType":5123,"count":132,"max":[35.0],"min":[0.0],"normalized":false,"type":"SCALAR"},{"bufferView":15,"componentType":5126,"count":36,"max":[0.100000001490116,0.627500057220459,0.0],"min":[-0.100000001490116,-0.0274999737739563,0.0],"normalized":false,"type":"VEC3"},{"bufferView":16,"componentType":5126,"count":36,"max":[1.0,0.0,-0.0000152590218931437,1.0],"min":[1.0,0.0,-0.0000152590218931437,1.0],"normalized":false,"type":"VEC4"},{"bufferView":17,"componentType":5126,"count":36,"max":[-0.0000152592547237873,-0.0000152592547237873,1.0],"min":[-0.0000152592547237873,-0.0000152592547237873,1.0],"normalized":false,"type":"VEC3"},{"bufferView":18,"componentType":5126,"count":36,"max":[1.0,1.0],"min":[0.0,0.0],"normalized":false,"type":"VEC2"},{"bufferView":19,"componentType":5123,"count":132,"max":[35.0],"min":[0.0],"normalized":false,"type":"SCALAR"},{"bufferView":20,"componentType":5126,"count":36,"max":[0.100000001490116,0.627500057220459,0.0],"min":[-0.100000001490116,-0.0274999737739563,0.0],"normalized":false,"type":"VEC3"},{"bufferView":21,"componentType":5126,"count":36,"max":[1.0,0.0,-0.0000152590218931437,1.0],"min":[1.0,0.0,-0.0000152590218931437,1.0],"normalized":false,"type":"VEC4"},{"bufferView":22,"componentType":5126,"count":36,"max":[-0.0000152592547237873,-0.0000152592547237873,1.0],"min":[-0.0000152592547237873,-0.0000152592547237873,1.0],"normalized":false,"type":"VEC3"},{"bufferView":23,"componentType":5126,"count":36,"max":[1.0,1.0],"min":[0.0,0.0],"normalized":false,"type":"VEC2"},{"bufferView":24,"componentType":5123,"count":132,"max":[35.0],"min":[0.0],"normalized":false,"type":"SCALAR"},{"bufferView":25,"componentType":5126,"count":36,"max":[0.100000001490116,0.627500057220459,0.0],"min":[-0.100000001490116,-0.0274999737739563,0.0],"normalized":false,"type":"VEC3"},{"bufferView":26,"componentType":5126,"count":36,"max":[1.0,0.0,-0.0000152590218931437,1.0],"min":[1.0,0.0,-0.0000152590218931437,1.0],"normalized":false,"type":"VEC4"},{"bufferView":27,"componentType":5126,"count":36,"max":[-0.0000152592547237873,-0.0000152592547237873,1.0],"min":[-0.0000152592547237873,-0.0000152592547237873,1.0],"normalized":false,"type":"VEC3"},{"bufferView":28,"componentType":5126,"count":36,"max":[1.0,1.0],"min":[0.0,0.0],"normalized":false,"type":"VEC2"},{"bufferView":29,"componentType":5123,"count":132,"max":[35.0],"min":[0.0],"normalized":false,"type":"SCALAR"},{"bufferView":30,"componentType":5126,"count":36,"max":[0.100000001490116,0.627500057220459,0.0],"min":[-0.100000001490116,-0.0274999737739563,0.0],"normalized":false,"type":"VEC3"},{"bufferView":31,"componentType":5126,"count":36,"max":[1.0,0.0,-0.0000152590218931437,1.0],"min":[1.0,0.0,-0.0000152590218931437,1.0],"normalized":false,"type":"VEC4"},{"bufferView":32,"componentType":5126,"count":36,"max":[-0.0000152592547237873,-0.0000152592547237873,1.0],"min":[-0.0000152592547237873,-0.0000152592547237873,1.0],"normalized":false,"type":"VEC3"},{"bufferView":33,"componentType":5126,"count":36,"max":[1.0,1.0],"min":[0.0,0.0],"normalized":false,"type":"VEC2"},{"bufferView":34,"componentType":5123,"count":132,"max":[35.0],"min":[0.0],"normalized":false,"type":"SCALAR"},{"bufferView":35,"componentType":5126,"count":36,"max":[0.100000001490116,0.627500057220459,0.0],"min":[-0.100000001490116,-0.0274999737739563,0.0],"normalized":false,"type":"VEC3"},{"bufferView":36,"componentType":5126,"count":36,"max":[1.0,0.0,-0.0000152590218931437,1.0],"min":[1.0,0.0,-0.0000152590218931437,1.0],"normalized":false,"type":"VEC4"},{"bufferView":37,"componentType":5126,"count":36,"max":[-0.0000152592547237873,-0.0000152592547237873,1.0],"min":[-0.0000152592547237873,-0.0000152592547237873,1.0],"normalized":false,"type":"VEC3"},{"bufferView":38,"componentType":5126,"count":36,"max":[1.0,1.0],"min":[0.0,0.0],"normalized":false,"type":"VEC2"},{"bufferView":39,"componentType":5123,"count":132,"max":[35.0],"min":[0.0],"normalized":false,"type":"SCALAR"},{"bufferView":40,"componentType":5126,"count":36,"max":[0.100000001490116,0.627500057220459,0.0],"min":[-0.100000001490116,-0.0274999737739563,0.0],"normalized":false,"type":"VEC3"},{"bufferView":41,"componentType":5126,"count":36,"max":[1.0,0.0,-0.0000152590218931437,1.0],"min":[1.0,0.0,-0.0000152590218931437,1.0],"normalized":false,"type":"VEC4"},{"bufferView":42,"componentType":5126,"count":36,"max":[-0.0000152592547237873,-0.0000152592547237873,1.0],"min":[-0.0000152592547237873,-0.0000152592547237873,1.0],"normalized":false,"type":"VEC3"},{"bufferView":43,"componentType":5126,"count":36,"max":[1.0,1.0],"min":[0.0,0.0],"normalized":false,"type":"VEC2"},{"bufferView":44,"componentType":5123,"count":132,"max":[35.0],"min":[0.0],"normalized":false,"type":"SCALAR"},{"bufferView":45,"componentType":5126,"count":36,"max":[0.100000001490116,0.627500057220459,0.0],"min":[-0.100000001490116,-0.0274999737739563,0.0],"normalized":false,"type":"VEC3"},{"bufferView":46,"componentType":5126,"count":36,"max":[1.0,0.0,-0.0000152590218931437,1.0],"min":[1.0,0.0,-0.0000152590218931437,1.0],"normalized":false,"type":"VEC4"},{"bufferView":47,"componentType":5126,"count":36,"max":[-0.0000152592547237873,-0.0000152592547237873,1.0],"min":[-0.0000152592547237873,-0.0000152592547237873,1.0],"normalized":false,"type":"VEC3"},{"bufferView":48,"componentType":5126,"count":36,"max":[1.0,1.0],"min":[0.0,0.0],"normalized":false,"type":"VEC2"},{"bufferView":49,"componentType":5123,"count":132,"max":[35.0],"min":[0.0],"normalized":false,"type":"SCALAR"}],"asset":{"generator":"Godot Engine v4.5.1.stable.mono.official@f62fdbde15035c5576dad93e586201f4d41ef0cb","version":"2.0"},"bufferViews":[{"buffer":0,"byteLength":432,"byteStride":12,"target":34962},{"buffer":0,"byteLength":576,"byteOffset":432,"byteStride":16,"target":34962},{"buffer":0,"byteLength":432,"byteOffset":1008,"byteStride":12,"target":34962},{"buffer":0,"byteLength":288,"byteOffset":1440,"byteStride":8,"target":34962},{"buffer":0,"byteLength":264,"byteOffset":1728,"target":34963},{"buffer":0,"byteLength":432,"byteOffset":1992,"byteStride":12,"target":34962},{"buffer":0,"byteLength":576,"byteOffset":2424,"byteStride":16,"target":34962},{"buffer":0,"byteLength":432,"byteOffset":3000,"byteStride":12,"target":34962},{"buffer":0,"byteLength":288,"byteOffset":3432,"byteStride":8,"target":34962},{"buffer":0,"byteLength":264,"byteOffset":3720,"target":34963},{"buffer":0,"byteLength":432,"byteOffset":3984,"byteStride":12,"target":34962},{"buffer":0,"byteLength":576,"byteOffset":4416,"byteStride":16,"target":34962},{"buffer":0,"byteLength":432,"byteOffset":4992,"byteStride":12,"target":34962},{"buffer":0,"byteLength":288,"byteOffset":5424,"byteStride":8,"target":34962},{"buffer":0,"byteLength":264,"byteOffset":5712,"target":34963},{"buffer":0,"byteLength":432,"byteOffset":5976,"byteStride":12,"target":34962},{"buffer":0,"byteLength":576,"byteOffset":6408,"byteStride":16,"target":34962},{"buffer":0,"byteLength":432,"byteOffset":6984,"byteStride":12,"target":34962},{"buffer":0,"byteLength":288,"byteOffset":7416,"byteStride":8,"target":34962},{"buffer":0,"byteLength":264,"byteOffset":7704,"target":34963},{"buffer":0,"byteLength":432,"byteOffset":7968,"byteStride":12,"target":34962},{"buffer":0,"byteLength":576,"byteOffset":8400,"byteStride":16,"target":34962},{"buffer":0,"byteLength":432,"byteOffset":8976,"byteStride":12,"target":34962},{"buffer":0,"byteLength":288,"byteOffset":9408,"byteStride":8,"target":34962},{"buffer":0,"byteLength":264,"byteOffset":9696,"target":34963},{"buffer":0,"byteLength":432,"byteOffset":9960,"byteStride":12,"target":34962},{"buffer":0,"byteLength":576,"byteOffset":10392,"byteStride":16,"target":34962},{"buffer":0,"byteLength":432,"byteOffset":10968,"byteStride":12,"target":34962},{"buffer":0,"byteLength":288,"byteOffset":11400,"byteStride":8,"target":34962},{"buffer":0,"byteLength":264,"byteOffset":11688,"target":34963},{"buffer":0,"byteLength":432,"byteOffset":11952,"byteStride":12,"target":34962},{"buffer":0,"byteLength":576,"byteOffset":12384,"byteStride":16,"target":34962},{"buffer":0,"byteLength":432,"byteOffset":12960,"byteStride":12,"target":34962},{"buffer":0,"byteLength":288,"byteOffset":13392,"byteStride":8,"target":34962},{"buffer":0,"byteLength":264,"byteOffset":13680,"target":34963},{"buffer":0,"byteLength":432,"byteOffset":13944,"byteStride":12,"target":34962},{"buffer":0,"byteLength":576,"byteOffset":14376,"byteStride":16,"target":34962},{"buffer":0,"byteLength":432,"byteOffset":14952,"byteStride":12,"target":34962},{"buffer":0,"byteLength":288,"byteOffset":15384,"byteStride":8,"target":34962},{"buffer":0,"byteLength":264,"byteOffset":15672,"target":34963},{"buffer":0,"byteLength":432,"byteOffset":15936,"byteStride":12,"target":34962},{"buffer":0,"byteLength":576,"byteOffset":16368,"byteStride":16,"target":34962},{"buffer":0,"byteLength":432,"byteOffset":16944,"byteStride":12,"target":34962},{"buffer":0,"byteLength":288,"byteOffset":17376,"byteStride":8,"target":34962},{"buffer":0,"byteLength":264,"byteOffset":17664,"target":34963},{"buffer":0,"byteLength":432,"byteOffset":17928,"byteStride":12,"target":34962},{"buffer":0,"byteLength":576,"byteOffset":18360,"byteStride":16,"target":34962},{"buffer":0,"byteLength":432,"byteOffset":18936,"byteStride":12,"target":34962},{"buffer":0,"byteLength":288,"byteOffset":19368,"byteStride":8,"target":34962},{"buffer":0,"byteLength":264,"byteOffset":19656,"target":34963}],"buffers":[{"byteLength":19920,"uri":"grass0.bin"}],"extensionsUsed":["GODOT_single_root"],"materials":[{}],"meshes":[{"primitives":[{"attributes":{"NORMAL":2,"POSITION":0,"TANGENT":1,"TEXCOORD_0":3},"indices":4,"material":0,"mode":4}]},{"primitives":[{"attributes":{"NORMAL":7,"POSITION":5,"TANGENT":6,"TEXCOORD_0":8},"indices":9,"material":0,"mode":4}]},{"primitives":[{"attributes":{"NORMAL":12,"POSITION":10,"TANGENT":11,"TEXCOORD_0":13},"indices":14,"material":0,"mode":4}]},{"primitives":[{"attributes":{"NORMAL":17,"POSITION":15,"TANGENT":16,"TEXCOORD_0":18},"indices":19,"material":0,"mode":4}]},{"primitives":[{"attributes":{"NORMAL":22,"POSITION":20,"TANGENT":21,"TEXCOORD_0":23},"indices":24,"material":0,"mode":4}]},{"primitives":[{"attributes":{"NORMAL":27,"POSITION":25,"TANGENT":26,"TEXCOORD_0":28},"indices":29,"material":0,"mode":4}]},{"primitives":[{"attributes":{"NORMAL":32,"POSITION":30,"TANGENT":31,"TEXCOORD_0":33},"indices":34,"material":0,"mode":4}]},{"primitives":[{"attributes":{"NORMAL":37,"POSITION":35,"TANGENT":36,"TEXCOORD_0":38},"indices":39,"material":0,"mode":4}]},{"primitives":[{"attributes":{"NORMAL":42,"POSITION":40,"TANGENT":41,"TEXCOORD_0":43},"indices":44,"material":0,"mode":4}]},{"primitives":[{"attributes":{"NORMAL":47,"POSITION":45,"TANGENT":46,"TEXCOORD_0":48},"indices":49,"material":0,"mode":4}]}],"nodes":[{"children":[1,2,3,4,5,6,7,8,9,10],"name":"Grass"},{"mesh":0,"name":"MeshInstance3D","translation":[0.0,0.292943179607391,0.0]},{"mesh":1,"name":"MeshInstance3D9","rotation":[0.176991626620293,0.684597611427307,0.176991626620293,0.684597671031952],"scale":[1.10000002384186,0.5,1.0],"translation":[-0.000000000426581991952446,0.172810018062592,0.0681944563984871]},{"mesh":2,"name":"MeshInstance3D10","rotation":[0.250303983688354,0.00000000655764420542937,-0.00000000169537262006969,0.968167304992676],"scale":[1.10000002384186,0.5,1.0],"translation":[-0.000000000426581991952446,0.172810018062592,0.0681944563984871]},{"mesh":3,"name":"MeshInstance3D7","rotation":[-0.183012723922729,0.683012723922729,-0.183012694120407,0.683012664318085],"scale":[1.0,0.599999964237213,1.0],"translation":[0.00000000278870304626366,0.182441651821136,-0.0895871818065643]},{"mesh":4,"name":"MeshInstance3D8","rotation":[0.00000000668000765813304,0.965925812721252,-0.258819043636322,-0.0000000326435376507561],"scale":[1.0,0.600000083446503,1.0],"translation":[0.00000000278870304626366,0.182441651821136,-0.0895871818065643]},{"mesh":5,"name":"MeshInstance3D4","rotation":[0.0,0.70710676908493,0.0,0.70710676908493],"translation":[0.0,0.292943179607391,0.0]},{"mesh":6,"name":"MeshInstance3D3","rotation":[0.0,0.0,0.167465642094612,0.985877931118011],"scale":[1.00000011920929,0.748574614524841,1.0],"translation":[-0.0887599438428879,0.225941106677055,-0.0000000000000000595097753995637]},{"mesh":7,"name":"MeshInstance3D6","rotation":[-0.118416100740433,0.69712096452713,0.118416100740433,0.69712096452713],"scale":[1.00000023841858,0.748574674129486,1.0],"translation":[-0.0887599438428879,0.225941091775894,0.00000000211547335204898]},{"mesh":8,"name":"MeshInstance3D2","rotation":[0.0,0.0,-0.204897493124008,0.978783428668976],"scale":[1.00000011920929,0.900000035762787,1.0],"translation":[0.0970897376537323,0.231868624687195,0.0]},{"mesh":9,"name":"MeshInstance3D5","rotation":[0.124733686447144,0.595845639705658,-0.162556141614914,0.77652108669281],"scale":[1.0,0.900000035762787,0.999999940395355],"translation":[0.0970897451043129,0.231868624687195,-0.000000000449794257395553]}],"scene":0,"scenes":[{"nodes":[0]}]}